<?xml version="1.0" encoding="UTF-8"?>
<svg width="26px" height="26px" viewBox="0 0 26 26" version="1.1" xmlns="http://www.w3.org/2000/svg" xmlns:xlink="http://www.w3.org/1999/xlink">
    <!-- Generator: Sketch 49 (51002) - http://www.bohemiancoding.com/sketch -->
    <title>dashboard</title>
    <desc>Created with Sketch.</desc>
    <defs></defs>
    <g id="release" stroke="none" stroke-width="1" fill="none" fill-rule="evenodd">
        <g id="dashboard">
            <circle id="Oval-3" fill="#4ED687" cx="13" cy="13" r="13"></circle>
            <g id="noun_572814_cc" transform="translate(4.500000, 7.000000)" fill="#FFFFFF" fill-rule="nonzero">
                <g id="Group">
                    <path d="M14.5511905,5.76481481 C13.9440476,6.02962963 13.6607143,6.76296296 13.9238095,7.37407407 C14.247619,8.12777778 14.4297619,8.94259259 14.4297619,9.77777778 C14.4297619,10.45 14.9761905,11 15.6440476,11 C16.3119048,11 16.8583333,10.45 16.8583333,9.77777778 C16.8583333,8.5962963 16.6154762,7.45555556 16.15,6.37592593 C15.8869048,5.76481481 15.1583333,5.47962963 14.5511905,5.76481481 Z" id="Shape"></path>
                    <path d="M2.5702381,9.77777778 C2.5702381,6.47777778 5.24166667,3.80925926 8.5,3.80925926 C9.16785714,3.80925926 9.71428571,3.25925926 9.71428571,2.58703704 C9.71428571,1.91481481 9.16785714,1.36481481 8.5,1.36481481 C3.88571429,1.36481481 0.141666667,5.13333333 0.141666667,9.77777778 C0.141666667,10.45 0.688095238,11 1.35595238,11 C2.02380952,11 2.5702381,10.45 2.5702381,9.77777778 Z" id="Shape"></path>
                    <path d="M7.85238095,10.8166667 C8.0547619,10.9388889 8.27738095,11 8.5,11 C8.9047619,11 9.28928571,10.7962963 9.53214286,10.4296296 L14.8547619,2.03703704 C15.2190476,1.46666667 15.0571429,0.712962963 14.4904762,0.346296296 C13.9238095,-0.0203703704 13.175,0.142592593 12.8107143,0.712962963 L7.46785714,9.12592593 C7.12380952,9.6962963 7.28571429,10.45 7.85238095,10.8166667 Z" id="Shape"></path>
                </g>
            </g>
        </g>
    </g>
</svg>