<?xml version="1.0" encoding="UTF-8"?>
<svg width="26px" height="26px" viewBox="0 0 26 26" version="1.1" xmlns="http://www.w3.org/2000/svg" xmlns:xlink="http://www.w3.org/1999/xlink">
    <!-- Generator: Sketch 49 (51002) - http://www.bohemiancoding.com/sketch -->
    <title>unlimited</title>
    <desc>Created with Sketch.</desc>
    <defs></defs>
    <g id="release" stroke="none" stroke-width="1" fill="none" fill-rule="evenodd">
        <g id="unlimited">
            <circle id="Oval-3" fill="#F55B49" cx="13" cy="13" r="13"></circle>
            <path d="M9.39264084,15.3407282 C11.7472534,18.2496396 17.4853847,21.0373463 18.8704509,20.4111224 C20.2555171,19.7848984 20.552317,18.4314466 20.492957,17.8052226 C20.4335971,17.1789986 17.2875181,15.2599251 16.4960517,14.8963112 C15.7045853,14.5326973 14.794399,15.7043422 14.3590925,16.2093615 C13.9039993,16.6941801 12.1627732,15.2195236 11.4108801,14.472095 C11.4108801,14.472095 9.43221416,12.2096083 9.88730733,11.7247898 C10.3424005,11.2399712 11.4702401,10.2703341 11.0745069,9.48250393 C10.6787737,8.69467376 8.68032108,5.5433531 8.04714796,5.50295156 C7.43376151,5.46255001 6.12784195,5.82616393 5.57381548,7.26041885 C5.019789,8.69467376 7.67120142,14.1690834 10.6194137,16.4517708" id="Shape" fill="#FFFFFF" fill-rule="nonzero"></path>
        </g>
    </g>
</svg>
