<?xml version="1.0" encoding="UTF-8"?>
<svg width="26px" height="26px" viewBox="0 0 26 26" version="1.1" xmlns="http://www.w3.org/2000/svg" xmlns:xlink="http://www.w3.org/1999/xlink">
    <!-- Generator: Sketch 49 (51002) - http://www.bohemiancoding.com/sketch -->
    <title>growth</title>
    <desc>Created with Sketch.</desc>
    <defs></defs>
    <g id="release" stroke="none" stroke-width="1" fill="none" fill-rule="evenodd">
        <g id="growth">
            <circle id="Oval-3" fill="#4ED687" cx="13" cy="13" r="13"></circle>
            <g id="Group-9" transform="translate(15.398494, 13.181871) rotate(32.000000) translate(-15.398494, -13.181871) translate(9.898494, 3.681871)">
                <path d="M7.09801931,0.587634263 L10.2138882,5.03887553 C10.2772311,5.12936539 10.2552241,5.25407148 10.1647343,5.31741438 C10.1311176,5.34094608 10.0910762,5.353568 10.0500418,5.353568 L3.81830403,5.353568 C3.70784708,5.353568 3.61830403,5.26402495 3.61830403,5.153568 C3.61830403,5.11253358 3.63092595,5.07249224 3.65445765,5.03887553 L6.77032654,0.587634263 C6.83366944,0.497144404 6.95837553,0.475137446 7.04886539,0.538480348 C7.06799365,0.551870133 7.08462952,0.568505999 7.09801931,0.587634263 Z" id="Rectangle-3" fill="#FFFFFF"></path>
                <path d="M0.0264892578,18.9998779 L0.0264892578,12.9885254 C0.0264892578,12.4362406 0.474204508,11.9885254 1.02648926,11.9885254 L5.9987793,11.9885254 C6.55106405,11.9885254 6.9987793,11.5408101 6.9987793,10.9885254 L6.9987793,5.05151367" id="Path-5" stroke="#FFFFFF" stroke-width="2.5" stroke-linecap="round"></path>
            </g>
        </g>
    </g>
</svg>