<?xml version="1.0" encoding="UTF-8"?>
<svg width="26px" height="26px" viewBox="0 0 26 26" version="1.1" xmlns="http://www.w3.org/2000/svg" xmlns:xlink="http://www.w3.org/1999/xlink">
    <!-- Generator: Sketch 49 (51002) - http://www.bohemiancoding.com/sketch -->
    <title>security</title>
    <desc>Created with Sketch.</desc>
    <defs></defs>
    <g id="release" stroke="none" stroke-width="1" fill="none" fill-rule="evenodd">
        <g id="security">
            <circle id="Oval-3" fill="#4ED687" cx="13" cy="13" r="13"></circle>
            <path d="M13.0288967,6 C12.9711033,6 12.91331,6 12.8555166,6 C10.5245184,6.07525326 8.73292469,8.0130246 8.73292469,10.2894356 L8.73292469,11.6439942 L8.63660245,11.6439942 C8.00087566,11.6439942 7.5,12.1331404 7.5,12.7539797 L7.5,17.8900145 C7.5,18.5108538 8.00087566,19 8.63660245,19 L17.3633975,19 C17.9991243,19 18.5,18.5108538 18.5,17.8900145 L18.5,12.7539797 C18.5,12.1331404 17.9991243,11.6439942 17.3633975,11.6439942 L17.3248687,11.6439942 L17.3248687,10.1765557 C17.3248687,7.8813314 15.3984238,6 13.0288967,6 Z M13.914197,16.7758329 C13.9350613,16.9128553 13.8307398,17.030303 13.6846897,17.030303 L12.9961678,17.030303 L12.3076459,17.030303 C12.1615958,17.030303 12.0572742,16.9128553 12.0781385,16.7758329 L12.3493745,15.5622059 C12.0990028,15.346885 11.9320884,15.0336909 11.9946813,14.6813476 C12.0572742,14.2702804 12.4328317,13.9375118 12.870982,13.8787879 C12.9127106,13.8787879 12.9544392,13.8787879 12.9961678,13.8787879 C13.5595039,13.8787879 14.0185185,14.3094297 14.0185185,14.8379447 C14.0185185,15.1315641 13.8724684,15.4056089 13.6429611,15.5817805 L13.914197,16.7758329 Z M15.4531938,11.9090909 L10.5643049,11.9090909 L10.5643049,10.4800951 C10.5643049,9.22489602 11.4992319,8.10487225 12.7652788,7.98900772 C12.8431894,7.98900772 12.9210999,7.96969697 12.9990105,7.96969697 C14.342968,7.96969697 15.4531938,9.05109923 15.4531938,10.402852 L15.4531938,11.9090909 Z" id="Shape" fill="#FFFFFF" fill-rule="nonzero"></path>
        </g>
    </g>
</svg>